<svg viewBox="0 0 20 14" xmlns="http://www.w3.org/2000/svg">
<path d="M9.53686 10.4404C9.68921 10.4404 9.81226 10.3428 9.89721 10.1455C9.98706 9.94822 10.03 9.48044 10.03 8.75097C10.03 8.01368 9.98705 7.54883 9.89721 7.34863C9.80932 7.15137 9.69018 7.05371 9.53686 7.05371C9.38648 7.05371 9.26929 7.15136 9.17944 7.34863C9.0896 7.5459 9.04663 8.01368 9.04663 8.75097C9.04663 9.48632 9.0896 9.95116 9.17944 10.1455C9.26929 10.3427 9.38647 10.4404 9.53686 10.4404Z"/>
<path d="M1.20024 4.67972V11.9569L0.0928241 11.869C0.0557144 11.8661 0.0332546 11.8495 0.0225122 11.8339C0.0127465 11.8163 -0.00287763 11.7938 0.00298107 11.7616L1.20024 4.67972Z"/>
<path d="M2.13974 0.07724H19.9023C19.957 0.07724 20 0.120209 20 0.174894V3.83511H2.04314V0.174894C2.04314 0.120207 2.08505 0.07724 2.13974 0.07724ZM5.99521 2.53035C6.33993 2.53035 6.61728 2.25007 6.61728 1.90828C6.61728 1.56355 6.337 1.28621 5.99521 1.28621C5.65048 1.28621 5.37314 1.56648 5.37314 1.90828C5.37021 2.25007 5.65048 2.53035 5.99521 2.53035ZM10.9599 2.53035C11.3046 2.53035 11.582 2.25007 11.582 1.90828C11.582 1.56355 11.3017 1.28621 10.9599 1.28621C10.6152 1.28621 10.3349 1.56648 10.3349 1.90828C10.3349 2.25007 10.6152 2.53035 10.9599 2.53035ZM15.9229 2.53035C16.2676 2.53035 16.5449 2.25007 16.5449 1.90828C16.5449 1.56355 16.2647 1.28621 15.9229 1.28621C15.5782 1.28621 15.3008 1.56648 15.3008 1.90828C15.2998 2.25007 15.5801 2.53035 15.9229 2.53035Z"/>
<path d="M2.04193 13.3251C2.04193 13.3798 2.0849 13.4228 2.13958 13.4228H19.9022C19.9569 13.4228 19.9998 13.3798 19.9998 13.3251V4.67471H2.04199L2.04193 13.3251ZM16.1268 8.84968C16.0165 8.70222 15.8739 8.63191 15.704 8.63191C15.4862 8.63191 15.2919 8.7491 15.119 8.98446L14.5018 8.87703L14.8895 6.3673H16.8924V7.23252H15.4667L15.3417 8.04989C15.5116 7.94735 15.6893 7.89462 15.8612 7.89462C16.1737 7.89462 16.4383 8.01669 16.6561 8.26182C16.9315 8.57431 17.0682 8.98936 17.0682 9.49911C17.0682 9.92195 16.951 10.3116 16.7186 10.6671C16.4862 11.0225 16.1483 11.2022 15.7157 11.2022C15.3661 11.2022 15.0731 11.087 14.8378 10.8575C14.6024 10.627 14.4579 10.3028 14.4101 9.87995L15.1698 9.78034C15.1894 9.99323 15.2548 10.1583 15.3622 10.2774C15.4726 10.3975 15.5927 10.46 15.7245 10.46C15.8798 10.46 16.0116 10.3829 16.1249 10.2276C16.2352 10.0723 16.2929 9.83796 16.2929 9.51767C16.2948 9.21787 16.2372 8.9952 16.1268 8.84968ZM12.9871 7.21004C12.8924 7.10457 12.7674 7.04989 12.615 7.04989C12.2801 7.04989 12.0974 7.30281 12.072 7.80281L11.3191 7.71004C11.364 7.21982 11.5017 6.86044 11.7293 6.62802C11.9539 6.39755 12.2566 6.28037 12.6345 6.28037C13.0496 6.28037 13.3621 6.41514 13.572 6.68564C13.7849 6.95517 13.8875 7.26571 13.8875 7.61336C13.8875 7.81063 13.8621 8.00301 13.8103 8.18856C13.7556 8.37313 13.6726 8.56063 13.5603 8.74618C13.45 8.93368 13.2625 9.17098 13.0027 9.46395C12.7576 9.73935 12.6052 9.91902 12.5398 10.0069C12.4744 10.0948 12.4226 10.1798 12.3845 10.2647H13.8894V11.1221L11.2322 11.1202C11.2595 10.7979 11.3493 10.4874 11.4919 10.1954C11.6394 9.90242 11.9216 9.52059 12.3415 9.04305C12.6735 8.66318 12.8816 8.40828 12.9567 8.27353C13.072 8.07822 13.1267 7.88388 13.1267 7.68563C13.1296 7.48056 13.0818 7.32039 12.9871 7.21004ZM8.60912 6.83212C8.84447 6.46982 9.15404 6.28427 9.53684 6.28427C9.91964 6.28427 10.2321 6.46884 10.4665 6.83212C10.7038 7.19734 10.822 7.83504 10.822 8.75008C10.822 9.6573 10.7048 10.295 10.4665 10.6602C10.2312 11.0254 9.92161 11.2081 9.53882 11.2081C9.15404 11.2081 8.84352 11.0254 8.60912 10.6651C8.37182 10.3028 8.25365 9.66022 8.25365 8.73738C8.25463 7.83211 8.37182 7.19734 8.60912 6.83212ZM6.84156 7.21004C6.74684 7.10457 6.62184 7.04989 6.46949 7.04989C6.13454 7.04989 5.95192 7.30281 5.92457 7.80281L5.17458 7.71004C5.2195 7.21982 5.35719 6.86044 5.58472 6.62802C5.80933 6.39755 6.11207 6.28037 6.48999 6.28037C6.90504 6.28037 7.21753 6.41514 7.42748 6.68564C7.64037 6.95517 7.74291 7.26571 7.74291 7.61336C7.74291 7.81063 7.71556 8.00301 7.66576 8.18856C7.61107 8.37313 7.52806 8.56063 7.41576 8.74618C7.30541 8.93368 7.11791 9.17098 6.85814 9.46395C6.61302 9.73935 6.46069 9.91902 6.39524 10.0069C6.32981 10.0948 6.27806 10.1798 6.23997 10.2647H7.74484V11.1221L5.08661 11.1202C5.11395 10.7979 5.20184 10.4874 5.34638 10.1954C5.49384 9.90242 5.77608 9.52059 6.19597 9.04305C6.528 8.66318 6.73602 8.40828 6.81119 8.27353C6.92643 8.07822 6.98111 7.88388 6.98111 7.68563C6.98404 7.48056 6.93629 7.32039 6.84156 7.21004Z"/>
</svg>
