<svg xmlns="http://www.w3.org/2000/svg" viewBox="0 0 120 120"><g fill="none" stroke="#fff" stroke-width="8" stroke-linecap="round" stroke-miterlimit="10"><path d="M57.73 10.02c-4.66.3-7.68.79-11.49 1.88a50.17 50.17 0 00-31.19 26.14 50.26 50.26 0 00-4.9 17.66c-.24 2.6-.18 7.28.14 10.01a49.99 49.99 0 0010.69 25.63 49.84 49.84 0 0032.73 18.32c2.37.3 3.46.36 6.37.35 3.06 0 4.42-.09 7.04-.47a49.9 49.9 0 0032.89-19.48 49.9 49.9 0 009.7-24.35c.32-2.72.38-7.41.14-10.01a50.07 50.07 0 00-45.44-45.52 76.53 76.53 0 00-6.68-.16z" stroke-dasharray="38 14" stroke-width="8"/><path d="M61.82 26.03a32.56 32.56 0 0116.9 5.86c1.25.88 2.57 1.95 2.49 2.02L38.4 65.22c-5.15 3.77-9.4 6.84-9.43 6.84-.14 0-1.04-2.99-1.41-4.71a34.9 34.9 0 013.69-24.41 34.56 34.56 0 019.32-10.56 32.54 32.54 0 0119.74-6.43l1.51.08z" stroke-dasharray="38 14" stroke-width="8"/><path d="M91.33 48.72a34.96 34.96 0 01.76 20.08 34.19 34.19 0 01-12.04 18.37 32.63 32.63 0 01-26.7 6.23 32.22 32.22 0 01-14.26-6.98c0-.06 51.92-38.13 52.03-38.14.03 0 .12.2.21.44z" stroke-dasharray="38 14" stroke-width="8"/></g></svg>
