<svg xmlns="http://www.w3.org/2000/svg" viewBox="0 0 785 640"><path d="M625 0c0 10-9 14-15 18-6 5-13 9-20 11-6 2-13 3-21 3H256c-20 0-40 2-60 0-16-1-31-9-40-23l-5-9H0v640h155c10-11 22-18 36-22 9-3 18-3 27-3l249 1 89-2c21 0 42 3 58 19l8 7h50c0-5 3-8 8-8l13-1 29-1 24 1c6 0 10 3 12 9h27V0H625zm46 403c0-11 4-16 14-17 22 0 43-3 64 1 8 1 9 3 9 11v44c0 9-4 13-13 14h-29l-30-1c-11 0-14-3-14-14l-1-38zm1-130c0-2 3-4 4-5l8-2 43-3c8 0 16 2 23 4 3 1 8 6 8 9l-1 51-2 8h-50l-27-3c-1-1-3-2-3-4-4-18-4-36-3-55zM25 41c0-10 0-11 10-13 23-5 46-4 68 0 6 1 9 4 9 9v49c0 7-6 11-13 11H39c-9 0-14-5-14-14V41zm-1 167l1-40c0-10 0-11 10-13 23-4 47-4 70 1 4 1 6 2 6 6l1 16v33c0 8-4 12-12 13H69v1H41c-11 0-17-6-17-17zm1 79c0-6 1-11 10-11 21 0 41-2 62-1 13 1 15 4 15 16v40c0 10-4 14-14 15-13 1-26 2-39 1-9 0-19-2-28-4-5 0-6-4-6-8v-48zm87 167c0 6-4 10-10 10l-33 3v-1H40c-11 0-15-5-16-17v-40c0-9 1-10 10-11 23-6 46-5 70 0 5 1 8 4 8 9v47zm0 121c-1 6-4 11-10 11l-34 1H39c-9 0-14-5-14-15v-42c0-9 0-10 9-12 24-5 47-5 71 0 6 2 7 6 7 10v47zm521-114c-1 28-16 51-39 58-11 3-22 3-33 3H201c-25 0-45-15-53-39-5-17-4-34-4-51V221l1-39c2-26 19-42 43-49 10-3 21-4 31-4l193 1h92l58-1c16 0 31 4 45 12 17 10 25 26 25 45l1 275zm125 103c0 9-1 11-11 13h-60c-10 0-16-5-16-16v-42c0-8 3-11 10-11l44-1h18c10 0 15 6 15 15v42zm0-384v22c1 8-4 12-12 12h-61c-8 0-14-5-14-13l1-47c0-5 3-8 7-9h12l51-1c11 1 16 6 16 16v20zm0-107c0 11-3 14-15 15h-57c-8-1-15-6-15-14V28c1-7 3-9 10-10l34-1h26c9 0 18 4 17 17v39z" fill="#eee"/></svg>
