<svg viewBox="0 0 21 15" xmlns="http://www.w3.org/2000/svg">
<path d="M0 14.9091V12.3C0 11.772 0.13589 11.2866 0.40767 10.844C0.679451 10.4014 1.04053 10.0636 1.49091 9.83068C2.45379 9.34924 3.4322 8.98816 4.42614 8.74744C5.42008 8.50672 6.42955 8.38636 7.45455 8.38636C8.47955 8.38636 9.48902 8.50672 10.483 8.74744C11.4769 8.98816 12.4553 9.34924 13.4182 9.83068C13.8686 10.0636 14.2296 10.4014 14.5014 10.844C14.7732 11.2866 14.9091 11.772 14.9091 12.3V14.9091H0ZM16.7727 14.9091V12.1136C16.7727 11.4303 16.5825 10.7741 16.202 10.1452C15.8215 9.51619 15.2818 8.97652 14.583 8.52614C15.375 8.61932 16.1205 8.77851 16.8193 9.00369C17.5182 9.22888 18.1705 9.50455 18.7761 9.83068C19.3352 10.1413 19.7623 10.4868 20.0574 10.8673C20.3525 11.2478 20.5 11.6633 20.5 12.1136V14.9091H16.7727ZM7.45455 7.45455C6.42955 7.45455 5.55208 7.08958 4.82216 6.35966C4.09224 5.62974 3.72727 4.75227 3.72727 3.72727C3.72727 2.70227 4.09224 1.82481 4.82216 1.09489C5.55208 0.364962 6.42955 0 7.45455 0C8.47955 0 9.35701 0.364962 10.0869 1.09489C10.8169 1.82481 11.1818 2.70227 11.1818 3.72727C11.1818 4.75227 10.8169 5.62974 10.0869 6.35966C9.35701 7.08958 8.47955 7.45455 7.45455 7.45455ZM16.7727 3.72727C16.7727 4.75227 16.4078 5.62974 15.6778 6.35966C14.9479 7.08958 14.0705 7.45455 13.0455 7.45455C12.8746 7.45455 12.6572 7.43513 12.3932 7.39631C12.1292 7.35748 11.9117 7.31477 11.7409 7.26818C12.1602 6.77121 12.4825 6.21989 12.7077 5.61421C12.9329 5.00852 13.0455 4.37955 13.0455 3.72727C13.0455 3.075 12.9329 2.44602 12.7077 1.84034C12.4825 1.23466 12.1602 0.683333 11.7409 0.186364C11.9583 0.108712 12.1758 0.0582386 12.3932 0.0349432C12.6106 0.0116477 12.828 0 13.0455 0C14.0705 0 14.9479 0.364962 15.6778 1.09489C16.4078 1.82481 16.7727 2.70227 16.7727 3.72727ZM1.86364 13.0455H13.0455V12.3C13.0455 12.1292 13.0027 11.9739 12.9173 11.8341C12.8319 11.6943 12.7193 11.5856 12.5795 11.508C11.7409 11.0886 10.8945 10.7741 10.0403 10.5645C9.18617 10.3548 8.32424 10.25 7.45455 10.25C6.58485 10.25 5.72292 10.3548 4.86875 10.5645C4.01458 10.7741 3.16818 11.0886 2.32955 11.508C2.18977 11.5856 2.07718 11.6943 1.99176 11.8341C1.90634 11.9739 1.86364 12.1292 1.86364 12.3V13.0455ZM7.45455 5.59091C7.96705 5.59091 8.40578 5.40843 8.77074 5.04347C9.1357 4.6785 9.31818 4.23977 9.31818 3.72727C9.31818 3.21477 9.1357 2.77604 8.77074 2.41108C8.40578 2.04612 7.96705 1.86364 7.45455 1.86364C6.94205 1.86364 6.50332 2.04612 6.13835 2.41108C5.77339 2.77604 5.59091 3.21477 5.59091 3.72727C5.59091 4.23977 5.77339 4.6785 6.13835 5.04347C6.50332 5.40843 6.94205 5.59091 7.45455 5.59091Z"/>
</svg>
