<svg viewBox="0 0 20 20" xmlns="http://www.w3.org/2000/svg">
<path d="M9.29441 19.9896C7.5684 19.8646 6.00062 19.3358 4.55152 18.3885C1.97603 16.7041 0.329138 13.9829 0.027242 10.916C-0.0123168 10.5184 -0.00815275 9.41695 0.0355702 8.99846C0.29999 6.43547 1.49925 4.10774 3.42305 2.42337C4.87632 1.14916 6.58776 0.362148 8.51365 0.07899C9.1216 -0.0105378 10.5811 -0.0271942 11.1787 0.0456773C12.076 0.158108 12.9172 0.370476 13.7292 0.693193C15.2949 1.31364 16.744 2.40671 17.8433 3.79544C18.9884 5.24246 19.7275 7.06008 19.9253 8.9131C19.9711 9.33783 19.9857 10.2623 19.9566 10.6766C19.8587 11.9987 19.5339 13.2063 18.9551 14.3993C18.1389 16.0774 16.8335 17.5161 15.2074 18.5238C13.8291 19.3795 12.3425 19.8646 10.7414 19.9833C10.477 20.0021 9.52552 20.0062 9.29441 19.9896ZM10.7253 18.6888C11.7521 18.5863 12.8593 18.2648 13.7997 17.7966C15.381 17.009 16.6389 15.8636 17.5069 14.4189C18.1378 13.37 18.5297 12.2528 18.6824 11.0633C18.8471 9.78332 18.7206 8.52949 18.3006 7.27163C17.7541 5.632 16.7594 4.21339 15.381 3.10624C13.9885 1.98703 12.3368 1.34202 10.5244 1.2074C9.47752 1.12903 8.32215 1.28375 7.24915 1.64343C5.60148 2.19801 4.04021 3.33932 2.9853 4.76395C2.57539 5.31653 2.22375 5.92737 1.96656 6.52616C1.53253 7.54088 1.30548 8.51743 1.24319 9.64669C1.17688 10.792 1.43207 12.1905 1.9123 13.3238C2.65576 15.076 3.87745 16.4705 5.5412 17.4671C6.35901 17.9574 7.25317 18.3171 8.15336 18.516C8.63762 18.6245 8.94304 18.6667 9.63024 18.7169C9.79701 18.729 10.5003 18.7109 10.7253 18.6888Z"/>
<path d="M9.14865 17.1934C8.03892 17.0872 7.13531 16.7749 6.42742 16.2502C5.72785 15.7297 5.30311 15.1009 5.11781 14.3098C5.06368 14.0807 5.05952 14.0266 5.05743 13.6331C5.05743 13.2958 5.06576 13.1709 5.09491 13.0335C5.29479 12.1257 5.80697 11.5157 6.60856 11.2283C6.85632 11.1409 7.03329 11.1097 7.37058 11.0992C7.8328 11.0826 8.13053 11.1471 8.447 11.3324C8.86133 11.576 9.23401 12.1028 9.12991 12.2985C9.11117 12.3318 9.08619 12.3422 9.01748 12.3422C8.68435 12.3443 8.25337 12.5546 8.00144 12.8378C7.38516 13.529 7.47052 14.6054 8.20965 15.484C8.69893 16.067 9.65667 16.3085 10.4395 16.0483C10.7914 15.9317 11.1537 15.6902 11.3723 15.4237C11.5138 15.2508 11.6929 14.8844 11.7554 14.6429C11.822 14.3805 11.822 13.9142 11.7574 13.6497C11.6617 13.2729 11.493 12.9356 11.2244 12.5837C11.0516 12.3589 10.5686 11.8717 10.2313 11.5844C9.97522 11.3657 8.76139 10.3789 8.08472 9.83753C6.92711 8.9131 6.33581 8.26559 5.95479 7.49523C5.7799 7.14545 5.69454 6.88936 5.6175 6.48128C5.56545 6.21477 5.56545 5.57142 5.61542 5.3195C5.80905 4.35551 6.42117 3.61638 7.42888 3.12919C8.31791 2.70028 9.26524 2.53164 10.6165 2.56287C11.9511 2.59618 12.8693 2.86893 13.5605 3.43941C13.7271 3.57682 13.9665 3.85582 14.0789 4.04112C14.183 4.21393 14.2871 4.46586 14.3475 4.69488C14.3975 4.88227 14.4016 4.93224 14.4037 5.32574C14.4037 5.71925 14.3996 5.76713 14.3496 5.95244C14.1726 6.60828 13.8208 7.04967 13.2919 7.27453C12.8006 7.4869 12.1281 7.44526 11.6742 7.17668C11.518 7.08299 11.2952 6.86229 11.214 6.72071C11.1661 6.63743 11.1474 6.57913 11.1474 6.50626V6.4084L11.3202 6.3272C11.6117 6.18563 11.8137 5.98367 11.9573 5.67761C12.153 5.26536 12.151 4.85312 11.949 4.44087C11.8428 4.22018 11.7345 4.09109 11.5534 3.962C11.0537 3.60389 10.2771 3.55184 9.6296 3.83292C9.40474 3.92869 9.24442 4.04112 9.06537 4.22226C8.51362 4.78025 8.46157 5.5277 8.91962 6.27307C9.11534 6.59371 9.35269 6.85396 9.86695 7.32242C10.3812 7.79088 10.604 7.9741 11.9386 9.02761C12.6173 9.56478 12.8859 9.79381 13.2586 10.1561C13.598 10.4871 13.8124 10.737 13.9915 11.0097C14.385 11.6114 14.5703 12.1986 14.5974 12.9356C14.6307 13.8538 14.41 14.6616 13.9415 15.3195C13.7625 15.5736 13.3336 16.015 13.0941 16.1919C12.3862 16.7187 11.6034 17.0268 10.6269 17.1622C10.3437 17.2017 9.44013 17.2205 9.14865 17.1934Z"/>
</svg>
