<svg xmlns="http://www.w3.org/2000/svg" viewBox="0 0 511 442"><path fill="#718aa8" d="M386.3 153.3a67.7 67.7 0 0 0-65.7 50H0v36.9h320.6c8.1 28.4 35 50 65.7 50a69.4 69.4 0 0 0 65.7-50h59v-37h-59c-8-29.7-35-49.9-65.7-49.9zm0 100a31.8 31.8 0 1 1 0-63.6 31.8 31.8 0 0 1 0 63.6zM200.3 50c-8-29.8-35-50-65.7-50A67.7 67.7 0 0 0 69 50H0v35.5h69c8 29.8 35 50 65.6 50a67.7 67.7 0 0 0 65.7-50H511V50H200.3zm-65.7 49.5a31.8 31.8 0 1 1 .1-63.7 31.8 31.8 0 0 1 0 63.7zm59.6 205.7a69.4 69.4 0 0 0-65.7 50H0V392h128.5c8 29.8 35 50 65.7 50a67.7 67.7 0 0 0 65.7-50H511v-37H259.9c-8.1-28.3-35-50-65.7-50zm0 100.6a31.8 31.8 0 1 1 0-63.7 31.8 31.8 0 0 1 0 63.7z"/></svg>
