<svg viewBox="0 0 15 14" xmlns="http://www.w3.org/2000/svg">
<path d="M10.2955 7.42424L9.30682 6.39899C9.40909 5.84512 9.25568 5.3266 8.84659 4.84343C8.4375 4.36027 7.90909 4.17172 7.26136 4.27778L6.27273 3.25253C6.46591 3.15825 6.66193 3.08754 6.8608 3.0404C7.05966 2.99327 7.27273 2.9697 7.5 2.9697C8.35227 2.9697 9.0767 3.27904 9.6733 3.89773C10.2699 4.51641 10.5682 5.26768 10.5682 6.15152C10.5682 6.38721 10.5455 6.60816 10.5 6.81439C10.4545 7.02062 10.3864 7.22391 10.2955 7.42424ZM12.4773 9.65152L11.4886 8.66162C11.9205 8.31987 12.304 7.94571 12.6392 7.53914C12.9744 7.13258 13.2614 6.67003 13.5 6.15152C12.9318 4.96128 12.1165 4.01557 11.054 3.31439C9.99148 2.61322 8.80682 2.26263 7.5 2.26263C7.17045 2.26263 6.84659 2.2862 6.52841 2.33333C6.21023 2.38047 5.89773 2.45118 5.59091 2.54545L4.53409 1.44949C5 1.24916 5.47727 1.09891 5.96591 0.998737C6.45455 0.898569 6.96591 0.848485 7.5 0.848485C9.21591 0.848485 10.7443 1.34049 12.0852 2.32449C13.4261 3.3085 14.3977 4.58418 15 6.15152C14.7386 6.8468 14.3949 7.492 13.9688 8.08712C13.5426 8.68224 13.0455 9.2037 12.4773 9.65152ZM12.8182 14L9.95455 11.0657C9.55682 11.1953 9.15625 11.2925 8.75284 11.3573C8.34943 11.4221 7.93182 11.4545 7.5 11.4545C5.78409 11.4545 4.25568 10.9625 2.91477 9.97854C1.57386 8.99453 0.602273 7.71885 0 6.15152C0.238636 5.52694 0.539773 4.94655 0.903409 4.41035C1.26705 3.87416 1.68182 3.39394 2.14773 2.9697L0.272727 0.989899L1.22727 0L13.7727 13.0101L12.8182 14ZM3.10227 3.9596C2.77273 4.26599 2.47159 4.60185 2.19886 4.96717C1.92614 5.33249 1.69318 5.72727 1.5 6.15152C2.06818 7.34175 2.88352 8.28746 3.94602 8.98864C5.00852 9.68981 6.19318 10.0404 7.5 10.0404C7.72727 10.0404 7.94886 10.0257 8.16477 9.99621C8.38068 9.96675 8.60227 9.93434 8.82955 9.89899L8.21591 9.22727C8.09091 9.26263 7.97159 9.28914 7.85795 9.30682C7.74432 9.3245 7.625 9.33333 7.5 9.33333C6.64773 9.33333 5.9233 9.02399 5.3267 8.4053C4.73011 7.78662 4.43182 7.03535 4.43182 6.15152C4.43182 6.02189 4.44034 5.89815 4.45739 5.7803C4.47443 5.66246 4.5 5.53872 4.53409 5.40909L3.10227 3.9596Z"/>
</svg>
