<svg xmlns="http://www.w3.org/2000/svg" viewBox="0 -960 960 960"><path d="M223.5-103.5Q200-127 200-160t23.5-56.5Q247-240 280-240t56.5 23.5Q360-193 360-160t-23.5 56.5Q313-80 280-80t-56.5-23.5Zm400 0Q600-127 600-160t23.5-56.5Q647-240 680-240t56.5 23.5Q760-193 760-160t-23.5 56.5Q713-80 680-80t-56.5-23.5ZM246-720l96 200h280l110-200H246Zm-38-80h590q23 0 35 20.5t1 41.5L692-482q-11 20-29.5 31T622-440H324l-44 80h440q17 0 28.5 11.5T760-320q0 17-11.5 28.5T720-280H280q-45 0-68-39.5t-2-78.5l54-98-144-304H80q-17 0-28.5-11.5T40-840q0-17 11.5-28.5T80-880h65q11 0 21 6t15 17l27 57Zm134 280h280-280Z"/></svg>
