<svg viewBox="0 0 20 20" xmlns="http://www.w3.org/2000/svg">
<path d="M10 8.88889C12.7778 8.88889 15.1389 8.4537 17.0833 7.58333C19.0278 6.71296 20 5.66667 20 4.44444C20 3.22222 19.0278 2.17593 17.0833 1.30556C15.1389 0.435185 12.7778 0 10 0C7.22222 0 4.86111 0.435185 2.91667 1.30556C0.972222 2.17593 0 3.22222 0 4.44444C0 5.66667 0.972222 6.71296 2.91667 7.58333C4.86111 8.4537 7.22222 8.88889 10 8.88889ZM10 11.6667C10.7593 11.6667 11.7083 11.588 12.8472 11.4306C13.9861 11.2731 15.0833 11.0185 16.1389 10.6667C17.1944 10.3148 18.1019 9.85648 18.8611 9.29167C19.6204 8.72685 20 8.03704 20 7.22222V10C20 10.8148 19.6204 11.5046 18.8611 12.0694C18.1019 12.6343 17.1944 13.0926 16.1389 13.4444C15.0833 13.7963 13.9861 14.0509 12.8472 14.2083C11.7083 14.3657 10.7593 14.4444 10 14.4444C9.24074 14.4444 8.29167 14.3657 7.15278 14.2083C6.01389 14.0509 4.91667 13.7963 3.86111 13.4444C2.80556 13.0926 1.89815 12.6343 1.13889 12.0694C0.37963 11.5046 0 10.8148 0 10V7.22222C0 8.03704 0.37963 8.72685 1.13889 9.29167C1.89815 9.85648 2.80556 10.3148 3.86111 10.6667C4.91667 11.0185 6.01389 11.2731 7.15278 11.4306C8.29167 11.588 9.24074 11.6667 10 11.6667ZM10 17.2222C10.7593 17.2222 11.7083 17.1435 12.8472 16.9861C13.9861 16.8287 15.0833 16.5741 16.1389 16.2222C17.1944 15.8704 18.1019 15.412 18.8611 14.8472C19.6204 14.2824 20 13.5926 20 12.7778V15.5556C20 16.3704 19.6204 17.0602 18.8611 17.625C18.1019 18.1898 17.1944 18.6481 16.1389 19C15.0833 19.3519 13.9861 19.6065 12.8472 19.7639C11.7083 19.9213 10.7593 20 10 20C9.24074 20 8.29167 19.9213 7.15278 19.7639C6.01389 19.6065 4.91667 19.3519 3.86111 19C2.80556 18.6481 1.89815 18.1898 1.13889 17.625C0.37963 17.0602 0 16.3704 0 15.5556V12.7778C0 13.5926 0.37963 14.2824 1.13889 14.8472C1.89815 15.412 2.80556 15.8704 3.86111 16.2222C4.91667 16.5741 6.01389 16.8287 7.15278 16.9861C8.29167 17.1435 9.24074 17.2222 10 17.2222Z"/>
</svg>
