<svg xmlns="http://www.w3.org/2000/svg" viewBox="0 0 785 440"><path d="M97 26H51c-7 0-12 5-12 12v33c0 7 5 12 12 12h46c7 0 12-5 12-12V38c0-7-5-12-12-12zm0 110H51c-7 0-12 5-12 12v33c0 7 5 12 12 12h46c7 0 12-5 12-12v-33c0-7-5-12-12-12zm0 110H51c-7 0-12 5-12 12v33c0 7 5 12 12 12h46c7 0 12-5 12-12v-33c0-7-5-12-12-12zm0 110H51c-7 0-12 5-12 12v33c0 7 5 12 12 12h46c7 0 12-5 12-12v-33c0-7-5-12-12-12zM734 26h-46c-7 0-12 5-12 12v33c0 7 5 12 12 12h46c7 0 12-5 12-12V38c0-7-5-12-12-12zm0 110h-46c-7 0-12 5-12 12v33c0 7 5 12 12 12h46c7 0 12-5 12-12v-33c0-7-5-12-12-12zm0 110h-46c-7 0-12 5-12 12v33c0 7 5 12 12 12h46c7 0 12-5 12-12v-33c0-7-5-12-12-12zm0 110h-46c-7 0-12 5-12 12v33c0 7 5 12 12 12h46c7 0 12-5 12-12v-33c0-7-5-12-12-12zM577 55H208c-33 0-60 27-60 60v265c0 33 27 60 60 60h369c33 0 60-27 60-60V115c0-33-27-60-60-60z" fill="#fff"/></svg>
