<svg viewBox="0 0 15 14" xmlns="http://www.w3.org/2000/svg">
<path d="M5.18182 14L3.88636 11.8667L1.43182 11.3333L1.67045 8.86667L0 7L1.67045 5.13333L1.43182 2.66667L3.88636 2.13333L5.18182 0L7.5 0.966667L9.81818 0L11.1136 2.13333L13.5682 2.66667L13.3295 5.13333L15 7L13.3295 8.86667L13.5682 11.3333L11.1136 11.8667L9.81818 14L7.5 13.0333L5.18182 14ZM5.76136 12.3L7.5 11.5667L9.27273 12.3L10.2273 10.7L12.1023 10.2667L11.9318 8.4L13.1932 7L11.9318 5.56667L12.1023 3.7L10.2273 3.3L9.23864 1.7L7.5 2.43333L5.72727 1.7L4.77273 3.3L2.89773 3.7L3.06818 5.56667L1.80682 7L3.06818 8.4L2.89773 10.3L4.77273 10.7L5.76136 12.3ZM6.78409 9.36667L10.6364 5.6L9.68182 4.63333L6.78409 7.46667L5.31818 6.06667L4.36364 7L6.78409 9.36667Z"/>
</svg>
