<svg xmlns="http://www.w3.org/2000/svg" viewBox="66.5 770.5 132 80"><path fill="#fff" d="M183.7 779.5a40.9 40.9 0 0 0-25.8-8.9l-7.5-.1H107c-3.4.2-6.7.5-10 1.3a40 40 0 0 0-30.5 38.5A39.6 39.6 0 0 0 97 849a57 57 0 0 0 10 1.3h51a48 48 0 0 0 10-1.3 40 40 0 0 0 30.6-38.6c0-12-5.5-23.3-14.8-30.8zm-17.5 41.6a14 14 0 0 1-5.8 2.3c-2.1.3-4.2.3-6.3.3h-43.3c-2 0-4.1 0-6.2-.3-2.1-.4-4-1.1-5.8-2.3a13 13 0 0 1 0-21.5 14 14 0 0 1 5.8-2.3c2-.4 4.1-.3 6.2-.3h43.3c2.1 0 4.2 0 6.3.3 2.1.3 4 1.1 5.8 2.3a13 13 0 0 1 0 21.5z"/></svg>
