<svg viewBox="0 0 20 19" xmlns="http://www.w3.org/2000/svg">
<path d="M3.925 19C3.54167 19 3.17083 18.8667 2.8125 18.6C2.45417 18.3333 2.21667 18.0083 2.1 17.625C1.68333 16.225 1.34167 15.0125 1.075 13.9875C0.808333 12.9625 0.595833 12.0625 0.4375 11.2875C0.279167 10.5125 0.166667 9.825 0.1 9.225C0.0333333 8.625 0 8.05 0 7.5C0 5.96667 0.533333 4.66667 1.6 3.6C2.66667 2.53333 3.96667 2 5.5 2H10.5C10.95 1.4 11.5208 0.916667 12.2125 0.55C12.9042 0.183333 13.6667 0 14.5 0C14.9167 0 15.2708 0.145833 15.5625 0.4375C15.8542 0.729167 16 1.08333 16 1.5C16 1.6 15.9875 1.7 15.9625 1.8C15.9375 1.9 15.9083 1.99167 15.875 2.075C15.8083 2.25833 15.7458 2.44167 15.6875 2.625C15.6292 2.80833 15.5833 3.00833 15.55 3.225L17.825 5.5H19C19.2833 5.5 19.5208 5.59583 19.7125 5.7875C19.9042 5.97917 20 6.21667 20 6.5V11.75C20 11.9667 19.9375 12.1583 19.8125 12.325C19.6875 12.4917 19.5167 12.6167 19.3 12.7L17.175 13.4L15.925 17.575C15.7917 18.0083 15.55 18.3542 15.2 18.6125C14.85 18.8708 14.45 19 14 19H12C11.45 19 10.9792 18.8042 10.5875 18.4125C10.1958 18.0208 10 17.55 10 17H8C8 17.55 7.80417 18.0208 7.4125 18.4125C7.02083 18.8042 6.55 19 6 19H3.925ZM14.7125 8.7125C14.9042 8.52083 15 8.28333 15 8C15 7.71667 14.9042 7.47917 14.7125 7.2875C14.5208 7.09583 14.2833 7 14 7C13.7167 7 13.4792 7.09583 13.2875 7.2875C13.0958 7.47917 13 7.71667 13 8C13 8.28333 13.0958 8.52083 13.2875 8.7125C13.4792 8.90417 13.7167 9 14 9C14.2833 9 14.5208 8.90417 14.7125 8.7125ZM10 7C10.2833 7 10.5208 6.90417 10.7125 6.7125C10.9042 6.52083 11 6.28333 11 6C11 5.71667 10.9042 5.47917 10.7125 5.2875C10.5208 5.09583 10.2833 5 10 5H7C6.71667 5 6.47917 5.09583 6.2875 5.2875C6.09583 5.47917 6 5.71667 6 6C6 6.28333 6.09583 6.52083 6.2875 6.7125C6.47917 6.90417 6.71667 7 7 7H10Z"/>
</svg>
