<svg viewBox="0 0 21 21" xmlns="http://www.w3.org/2000/svg">
<path d="M21 21V18.375H17.3906L17.9156 17.9156C19.0531 16.9094 19.8516 15.7609 20.3109 14.4703C20.7703 13.1797 21 11.8781 21 10.5656C21 8.1375 20.2727 5.97734 18.818 4.08516C17.3633 2.19297 15.4656 0.940625 13.125 0.328125V3.08437C14.7 3.65312 15.9688 4.62109 16.9313 5.98828C17.8938 7.35547 18.375 8.88125 18.375 10.5656C18.375 11.55 18.1891 12.507 17.8172 13.4367C17.4453 14.3664 16.8656 15.225 16.0781 16.0125L15.75 16.3406V13.125H13.125V21H21ZM7.875 20.6719V17.9156C6.3 17.3469 5.03125 16.3789 4.06875 15.0117C3.10625 13.6445 2.625 12.1187 2.625 10.4344C2.625 9.45 2.81094 8.49297 3.18281 7.56328C3.55469 6.63359 4.13437 5.775 4.92187 4.9875L5.25 4.65938V7.875H7.875V0H7.15256e-07V2.625H3.60938L3.08437 3.08437C2.0125 4.15625 1.23047 5.32109 0.738282 6.57891C0.246094 7.83672 7.15256e-07 9.12187 7.15256e-07 10.4344C7.15256e-07 12.8625 0.727344 15.0227 2.18203 16.9148C3.63672 18.807 5.53437 20.0594 7.875 20.6719Z"/>
</svg>
