<svg viewBox="0 0 15 15" xmlns="http://www.w3.org/2000/svg">
<path d="M2.6937 5.97559L4.15279 6.59216C4.32739 6.2434 4.50821 5.90708 4.69528 5.58322C4.88234 5.25937 5.08811 4.93551 5.31258 4.61165L4.26503 4.40613L2.6937 5.97559ZM5.35 7.52637L7.48251 9.63767C8.00629 9.43837 8.56748 9.1332 9.16608 8.72215C9.76468 8.3111 10.3259 7.844 10.8496 7.32084C11.7226 6.44892 12.4054 5.48046 12.898 4.41547C13.3906 3.35048 13.6057 2.36956 13.5433 1.47273C12.6454 1.41045 11.6602 1.62531 10.5878 2.11733C9.51526 2.60934 8.54253 3.29131 7.66957 4.16323C7.1458 4.68639 6.67814 5.24691 6.2666 5.8448C5.85506 6.44269 5.54953 7.00321 5.35 7.52637ZM8.67971 6.3119C8.39288 6.02541 8.24947 5.67353 8.24947 5.25625C8.24947 4.83898 8.39288 4.48709 8.67971 4.2006C8.96654 3.91411 9.32196 3.77087 9.74597 3.77087C10.17 3.77087 10.5254 3.91411 10.8122 4.2006C11.0991 4.48709 11.2425 4.83898 11.2425 5.25625C11.2425 5.67353 11.0991 6.02541 10.8122 6.3119C10.5254 6.59839 10.17 6.74164 9.74597 6.74164C9.32196 6.74164 8.96654 6.59839 8.67971 6.3119ZM9.03513 12.3095L10.6065 10.74L10.4007 9.69372C10.0764 9.91793 9.75221 10.1203 9.42796 10.301C9.10372 10.4816 8.76701 10.6591 8.41782 10.8335L9.03513 12.3095ZM14.8902 0.10879C15.1271 1.61597 14.9806 3.08267 14.4506 4.50889C13.9206 5.93511 13.0071 7.29593 11.7101 8.59136L12.0843 10.4411C12.1341 10.6902 12.1217 10.9331 12.0468 11.1698C11.972 11.4064 11.8473 11.612 11.6727 11.7863L8.53006 14.9253L6.95873 11.2445L3.75996 8.04952L0.0748251 6.48006L3.19877 3.34114C3.37337 3.16675 3.58225 3.04219 3.82543 2.96745C4.06862 2.89272 4.31491 2.88026 4.56433 2.93009L6.41625 3.30377C7.71322 2.00834 9.07254 1.09282 10.4942 0.557207C11.9159 0.0215972 13.3812 -0.127875 14.8902 0.10879ZM1.40297 10.4224C1.83945 9.98644 2.37258 9.76534 3.00236 9.75912C3.63214 9.75289 4.16526 9.96776 4.60174 10.4037C5.03822 10.8397 5.25335 11.3722 5.24711 12.0012C5.24088 12.6302 5.01952 13.1627 4.58304 13.5987C4.27127 13.9101 3.75061 14.1779 3.02106 14.4021C2.29152 14.6263 1.2845 14.8256 0 15C0.174592 13.717 0.374126 12.7112 0.598601 11.9825C0.823076 11.2538 1.0912 10.7338 1.40297 10.4224ZM2.46923 11.4687C2.34452 11.5933 2.21981 11.8206 2.0951 12.1507C1.97039 12.4808 1.8831 12.814 1.83322 13.1503C2.16993 13.1005 2.50352 13.0164 2.834 12.898C3.16448 12.7797 3.39207 12.6583 3.51678 12.5337C3.66643 12.3842 3.74749 12.2036 3.75996 11.9919C3.77243 11.7801 3.70384 11.5995 3.55419 11.45C3.40454 11.3006 3.22372 11.2289 3.01171 11.2352C2.79971 11.2414 2.61888 11.3192 2.46923 11.4687Z"/>
</svg>
