<svg viewBox="0 0 19 19" xmlns="http://www.w3.org/2000/svg"><path d="M18.4531 11.6375L11.6521 18.43C11.4618 18.62 11.2478 18.7625 11.01 18.8575C10.7722 18.9525 10.5344 19 10.2966 19C10.0588 19 9.82103 18.9525 9.58323 18.8575C9.34543 18.7625 9.13141 18.62 8.94118 18.43L0.546934 10.0463C0.372549 9.87208 0.237797 9.67021 0.142678 9.44063C0.0475594 9.21104 0 8.96958 0 8.71625V1.9C0 1.3775 0.186274 0.930208 0.558824 0.558125C0.931373 0.186042 1.37922 0 1.90238 0H8.72716C8.98081 0 9.22653 0.0514583 9.46433 0.154375C9.70213 0.257292 9.90822 0.395833 10.0826 0.57L18.4531 8.95375C18.6433 9.14375 18.782 9.3575 18.8692 9.595C18.9564 9.8325 19 10.07 19 10.3075C19 10.545 18.9564 10.7785 18.8692 11.0081C18.782 11.2377 18.6433 11.4475 18.4531 11.6375ZM4.28035 5.7C4.67668 5.7 5.01356 5.56146 5.29099 5.28437C5.56842 5.00729 5.70713 4.67083 5.70713 4.275C5.70713 3.87917 5.56842 3.54271 5.29099 3.26562C5.01356 2.98854 4.67668 2.85 4.28035 2.85C3.88402 2.85 3.54714 2.98854 3.26971 3.26562C2.99228 3.54271 2.85357 3.87917 2.85357 4.275C2.85357 4.67083 2.99228 5.00729 3.26971 5.28437C3.54714 5.56146 3.88402 5.7 4.28035 5.7Z"/></svg>
