<svg width="400" height="354" xmlns="http://www.w3.org/2000/svg"><path d="M166.6 1.4c.9 0 1.6-.3 1.6-.7 0-.5 11-.7 31.8-.7 20.7 0 31.8.2 31.8.7 0 .4.7.7 1.6.7 4 0 12.6 7 15.4 12.5.5 1 2 3.7 3.3 5.7a27 27 0 0 1 2.3 4l4.3 7.5 4.2 7.5c0 .1 1.1 2 2.5 4.1a31 31 0 0 1 2.4 4.3 31 31 0 0 0 2.5 4.3c1.4 2.1 2.5 4 2.5 4.1L277 63l4.3 7.5c0 .1 1 2 2.4 4.1a302.3 302.3 0 0 0 9.2 16 303.5 303.5 0 0 1 9.2 16c1.4 2 2.5 4 2.5 4.1a24 24 0 0 0 2.5 4.3l2.4 4.1 4.3 7.5 4.2 7.5c0 .2 1.1 2 2.5 4.2a30 30 0 0 1 2.5 4.2l4.2 7.4 4.2 7.5 2.5 4.1a31 31 0 0 1 2.5 4.3 31 31 0 0 0 2.5 4.3l2.4 4.2 4.3 7.4 4.2 7.5c0 .1 1 2 2.4 4 1.3 2 2.5 4.2 2.8 4.8l2.3 3.9a212.8 212.8 0 0 0 6.8 11.9c2.3 3.8 4.1 7 4.1 7.2a30 30 0 0 0 2.5 4.2l2.4 4.2c0 .1 3 5.4 6.8 11.7a321.7 321.7 0 0 1 8.5 15 144 144 0 0 1 11 20.5 29 29 0 0 1-.1 12.2c-.4.2-.7 1-.7 1.7 0 1.3-2.2 5.7-5.2 10.5a20 20 0 0 0-1.9 3.4 32 32 0 0 1-2.5 4.2l-2.4 4.2c0 .2-.8 1.7-1.8 3.3a180 180 0 0 0-6.2 10.6l-3.5 6-3 5.5c-2.4 4.6-7.8 10-12.2 12.1l-5.3 2.6c-1.6.7-307.6.7-309.2 0l-5.2-2.5C35 347.7 26.9 339 26.9 336a1483 1483 0 0 1-21.2-36.8 33.2 33.2 0 0 1-4.3-8.9c0-.7-.3-1.5-.7-1.7a29 29 0 0 1 0-12.2l2.7-5.8a144 144 0 0 1 10-18l4.3-7.5 4.2-7.4c0-.2 1.1-2 2.5-4.2a31 31 0 0 0 2.5-4.3c0-.2 1-2.1 2.4-4.3 1.4-2 2.5-4 2.5-4.1 0-.2 1.8-3.4 4.1-7.2a212.8 212.8 0 0 0 6.8-12L45 198l7-12.3a339.7 339.7 0 0 0 9.1-15.6 32 32 0 0 0 2.5-4.3l1.8-3.2c1.8-2.8 2.3-3.7 6.2-10.7a158.3 158.3 0 0 1 5.4-9.4c0-.2 1.1-2 2.5-4.2a30 30 0 0 0 2.5-4.2l4.2-7.5 4.3-7.5c0-.1 1-2 2.4-4.1a31 31 0 0 0 2.5-4.3c0-.2 1.1-2.2 2.5-4.3l2.5-4.1 4.2-7.5 4.2-7.5c0-.1 1.1-2 2.5-4.1a32 32 0 0 0 2.5-4.3 181 181 0 0 0 8-14 158.5 158.5 0 0 1 5.4-9.3 24 24 0 0 1 2.5-4.3l2.5-4.1c0-.2 3-5.5 6.7-11.8a301 301 0 0 0 9-15.7c1.3-2 2.8-4.6 3.3-5.7 2.8-5.5 11.5-12.5 15.4-12.5zM208.5 95c-9-1.7-25 .2-28.6 3.4a3 3 0 0 1-1.7.5c-4.4 0-23.3 16.8-35.5 31.5A232.9 232.9 0 0 0 93 231.2c-4 16.7 1 35.4 12.7 48 10.2 10.7 17.3 14.3 38.8 19.5 9 2.2 14 3 28.6 5.3 8.2 1.2 45.7 1.2 53.8 0a271 271 0 0 0 28.6-5.3c28.8-7 41.3-16.4 50-37.6 2.8-7 3.5-20.6 1.5-29.6a252.8 252.8 0 0 0-11.6-37.9 242.4 242.4 0 0 0-29.2-51.9c-13.5-18.7-38.5-42.8-44.5-42.8a42.1 42.1 0 0 0-13.2-3.9z" fill="#fff"/></svg>
