<svg xmlns="http://www.w3.org/2000/svg" viewBox="13.5 0 143 170"><path fill="#FFF" d="M153.7 132.5a92.4 92.4 0 0 1-9.1 16.4 89.9 89.9 0 0 1-11.9 14.3 23 23 0 0 1-15.1 6.6c-3.9 0-8.5-1-14-3.4a42.6 42.6 0 0 0-15-3.2c-4.8 0-10 1-15.5 3.2-4.2 2-8.6 3.1-13.2 3.6-5.3.2-10.4-2.1-15.5-6.8a101.6 101.6 0 0 1-30.9-71.6c0-11.4 2.4-21.2 7.3-29.4a43.4 43.4 0 0 1 36.5-21.6c4.2 0 9.4 1.3 16.1 3.8 4.1 1.8 8.5 3.1 13 3.9 4.8-1.1 9.5-2.6 14-4.5a47 47 0 0 1 19.5-3.4 41 41 0 0 1 32.2 16.9 36 36 0 0 0-19 32.5c0 10.8 4 20 11.8 27a38 38 0 0 0 11.7 7.8l-3 7.8v.1zm-33-129c0 8.4-3.1 16.3-9.2 23.7-7.5 8.7-16.5 13.7-26.2 13L85 37a37 37 0 0 1 9.8-24.1c3.4-3.8 7.4-6.8 12-9A37 37 0 0 1 120.6 0c.2 1 .2 2.3.2 3.4z"/></svg>