<svg xmlns="http://www.w3.org/2000/svg" viewBox="0 0 512 512"><path fill="#fff" d="M459.7 233.4L369 323.9c-50 50-131 50-181 0-7.9-7.9-14-16.7-19.4-25.8l42-42.1c2-2 4.5-3.2 6.9-4.5a63 63 0 0 0 15.8 27.1 64 64 0 0 0 90.5 0l90.5-90.5a64 64 0 0 0-90.5-90.5l-32.2 32.2A160.5 160.5 0 0 0 210 121l68.6-68.5a128 128 0 0 1 181 181zM220.3 382.2l-32.2 32.2a64.1 64.1 0 0 1-90.5-90.5l90.5-90.5a63.4 63.4 0 0 1 106.3 27.1c2.4-1.4 4.8-2.5 6.8-4.5l42.1-42a126 126 0 0 0-19.3-26c-50-50-131-50-181 0l-90.5 90.5a128 128 0 0 0 181 181l68.6-68.5c-27.4 4-55.6 1.2-81.7-9z"/></svg>
