<svg xmlns="http://www.w3.org/2000/svg" viewBox="17 0 16 16"><path fill="#fff" d="M22.54.17a4.8 4.8 0 0 0-3.41 2.55c-.6 1.2-.76 1.86-.59 4.39.2 2.84.26 5.64.2 5.86-.47.94-1.1 1.57-1.73 2.36 0 .74-.07.6.27.6.74-.82 1.48-1.74 2.07-2.58l.02-2c.04-2.29-.55-4.68-.11-6.92.5-2.35 2.22-3.5 4.5-3.71a5.83 5.83 0 0 1 5.65 3.5c.9 1.55.85 3 1.24 5.92a9.37 9.37 0 0 0 1.66 4.67c.22.32.7.73.7.73v-1.02a6.98 6.98 0 0 1-.95-1.76c-.8-2.36-.61-4.57-1.25-7.28a8.7 8.7 0 0 0-2.37-3.91 8.75 8.75 0 0 0-3.3-1.5c-.87-.16-1.78-.02-2.6.1zm3.19 5.58c-1.2.19-2.16 1.43-1.47 2.58.13.25.22.47.2.49-.66-.25-1.66-.41-2.06-.08-.09.18-.2.32-.28.46-.3.39-.36-.46-.5.04-.4.65-.77 1.34-1.07 2.04 0 .19.5.59.98.77.89.25 1.8.15 2.51-.16.96-.33 1.85-.96 2.77-1.44.1.43 0 .06-1.66 1.34-.55.42-1.32.64-2.26.64-1.52.02-.89.19-.18.55.5.11 1.75-.17 2.68-.6 1.35-.62 1.56-.69 1.56-.52-.87.44-1.15.6-1.8 1.02-.94.61-1.87.98-2.23.9a3.6 3.6 0 0 1-1.79-1.13c-.66-.74-.77-.7-.77.31 0 .68-.02.73-.41 1.33-.47.72-.76 1.2-.96 1.65h10.05a24.26 24.26 0 0 0-1.83-4.1c-.1-.13-.08-.2.03-.33.43-.57.2-1.57-.22-1.63-.28-.12-.28-.13-.1-.22.13-.05.29-.3.41-.61.67-1.37.03-1.8-.5-2.7-.16-.36-.66-.6-1.1-.6zm-5.6 1.19c-.26.64-.3.96-.15 1.73.09.47.36 1.21.44 1.21.22-.1.37-.21.59-.34.02-.01-.08-.16-.21-.32-.52-.6-.56-1.5-.1-1.94.31-.28.4-.28.72.02.26.25.6 1.17.5 1.41-.03.08 0 .14.08.14.31 0 .45-1.32.2-1.91-.74-1.4-1.78-1.08-2.07 0zm6.26.4c.38.4.48.78.33 1.21-.1.3-.66.96-.78.95-.73-.28-.94-.33-1.06-.74-.19-.66-.04-1.23.42-1.6.44-.22.6-.39 1.09.17zm-2.19 1.8c.01.19-.9-.05-.53-.15.28-.1.5 0 .53.14z"/></svg>
